name C:\Users\u0101727\Documents\MyRepositories\predictivesimulations\OpenSimModel\subject1\EMG\EMG_gait_14.mot
datacolumns 25
datarows 9
range 3.21100000 3.21900000
endheader
time	HamL_r	TA_r	PerL_r	GL_r	HamM_r	Sol_r	VL_r	VM_r	PerB_l	TA_l	PerL_l	GL_l	GM_l	Sol_l	VL_l	VM_l	AddL_l	RF_l	TFL_l	GluMed_l	HamL_l	HamM_l	GluMed_r	RF_r	
          3.21100000	          0.00587611	          0.00347652	          0.03527693	          0.00325743	          0.00652299	          0.07484850	          0.00567636	          0.00378515	          0.00958834	          0.06352733	          0.01865695	          0.00909118	          0.00949732	          0.00952063	          0.02528538	          0.02209697	          0.01010961	          0.01199011	          0.00797276	          0.01191750	          0.00739137	          0.01651384	          0.00593326	          0.00413229	
          3.21200000	          0.00588631	          0.00345968	          0.03506710	          0.00325495	          0.00641509	          0.07407924	          0.00563321	          0.00377453	          0.00950620	          0.06370101	          0.01858837	          0.00907721	          0.00951023	          0.00959826	          0.02537889	          0.02202645	          0.01016515	          0.01173793	          0.00791822	          0.01211573	          0.00726827	          0.01663649	          0.00590855	          0.00415526	
          3.21300000	          0.00589392	          0.00344444	          0.03482158	          0.00325381	          0.00631151	          0.07322016	          0.00558972	          0.00376463	          0.00943969	          0.06394780	          0.01854045	          0.00907067	          0.00953216	          0.00969142	          0.02546755	          0.02199529	          0.01022335	          0.01149515	          0.00787242	          0.01231713	          0.00715919	          0.01679698	          0.00588215	          0.00417815	
          3.21400000	          0.00589886	          0.00343081	          0.03454402	          0.00325411	          0.00621236	          0.07227907	          0.00554613	          0.00375544	          0.00938955	          0.06426893	          0.01851416	          0.00907159	          0.00956316	          0.00980030	          0.02555063	          0.02200451	          0.01028433	          0.01126262	          0.00783624	          0.01252182	          0.00706380	          0.01699383	          0.00585433	          0.00420081	
          3.21500000	          0.00590113	          0.00341879	          0.03423791	          0.00325597	          0.00611774	          0.07126331	          0.00550260	          0.00374693	          0.00935644	          0.06466547	          0.01851036	          0.00907993	          0.00960327	          0.00992501	          0.02562782	          0.02205482	          0.01034828	          0.01104111	          0.00781052	          0.01272999	          0.00698187	          0.01722560	          0.00582535	          0.00422307	
          3.21600000	          0.00590084	          0.00340834	          0.03390649	          0.00325946	          0.00602762	          0.07017993	          0.00545927	          0.00373905	          0.00934094	          0.06513806	          0.01852988	          0.00909561	          0.00965240	          0.01006557	          0.02569917	          0.02214663	          0.01041548	          0.01083140	          0.00779612	          0.01294186	          0.00691323	          0.01749085	          0.00579547	          0.00424479	
          3.21700000	          0.00589811	          0.00339946	          0.03355287	          0.00326466	          0.00594198	          0.06903579	          0.00541622	          0.00373175	          0.00934356	          0.06568677	          0.01857344	          0.00911849	          0.00971029	          0.01022192	          0.02576500	          0.02228007	          0.01048632	          0.01063430	          0.00779389	          0.01315771	          0.00685771	          0.01778802	          0.00576497	          0.00426582	
          3.21800000	          0.00589314	          0.00339212	          0.03318015	          0.00327164	          0.00586073	          0.06783731	          0.00537354	          0.00372501	          0.00936471	          0.06631092	          0.01864162	          0.00914835	          0.00977660	          0.01039397	          0.02582597	          0.02245500	          0.01056121	          0.01045057	          0.00780473	          0.01337785	          0.00681513	          0.01811536	          0.00573421	          0.00428602	
          3.21900000	          0.00588614	          0.00338633	          0.03279127	          0.00328043	          0.00578377	          0.06659042	          0.00533131	          0.00371884	          0.00940469	          0.06700920	          0.01873483	          0.00918495	          0.00985086	          0.01058163	          0.02588293	          0.02267099	          0.01064055	          0.01028090	          0.00782955	          0.01360248	          0.00678526	          0.01847099	          0.00570358	          0.00430524	
